<?xml version="1.0" encoding="utf-8"?>
<!-- Generator: Adobe Illustrator 26.3.1, SVG Export Plug-In . SVG Version: 6.00 Build 0)  -->
<svg version="1.1" id="Laag_1" xmlns="http://www.w3.org/2000/svg" xmlns:xlink="http://www.w3.org/1999/xlink" x="0px" y="0px"
	 viewBox="0 0 209.81 211.18" style="enable-background:new 0 0 209.81 211.18;" xml:space="preserve">
<style type="text/css">
	.st0{fill:#4F55A1;}
	.st1{fill:#C0D23E;stroke:#FFFFFF;stroke-width:2;stroke-miterlimit:10;}
	.st2{fill:none;stroke:#FFFFFF;stroke-width:2;stroke-linecap:round;stroke-miterlimit:10;}
	.st3{fill:#C0D23E;stroke:#FFFFFF;stroke-width:1.5;stroke-miterlimit:10;}
	.st4{fill:#C0D23E;}
</style>
<g>
	<path class="st0" d="M101.01,10.05c9.74,0.4,17.19,11.59,16.63,24.99c-0.56,13.4-8.91,23.93-18.65,23.53S81.8,46.98,82.36,33.58
		C82.92,20.18,91.26,9.65,101.01,10.05"/>
	<path class="st0" d="M155.26,132.61c-1.22,56.65-43.1,91.47-55.29,59.84c-18.85-48.86-14.68-42.4-71.99-59.84
		c-33.66-10.25,12.06-60.75,63.64-63.91C144.75,65.43,156.21,88.55,155.26,132.61z"/>
	<circle class="st1" cx="107.69" cy="113.69" r="38.97"/>
	<path class="st2" d="M111.56,76.02c-6.99,20.74-42.73,40.57-42.73,40.57"/>
	<path class="st2" d="M145.02,107.11c-19.68,9.58-42.51,45.21-42.51,45.21"/>
	
		<ellipse transform="matrix(0.3643 -0.9313 0.9313 0.3643 49.7582 157.3861)" class="st0" cx="140.17" cy="42.24" rx="27.15" ry="16.39"/>
	
		<ellipse transform="matrix(0.7537 -0.6572 0.6572 0.7537 0.0262 131.3261)" class="st0" cx="175.24" cy="65.63" rx="25.76" ry="15.99"/>
	
		<ellipse transform="matrix(0.8236 -0.5672 0.5672 0.8236 -27.7753 122.4979)" class="st0" cx="183.04" cy="105.9" rx="24.18" ry="16.81"/>
	
		<ellipse transform="matrix(0.0391 -0.9992 0.9992 0.0391 62.8649 131.6737)" class="st3" cx="99.9" cy="33.15" rx="18.19" ry="12.98"/>
	
		<ellipse transform="matrix(0.3978 -0.9175 0.9175 0.3978 45.6497 154.0382)" class="st3" cx="140.17" cy="42.24" rx="20.5" ry="12.79"/>
	
		<ellipse transform="matrix(0.7526 -0.6585 0.6585 0.7526 0.8881 132.0694)" class="st3" cx="176.19" cy="64.85" rx="20.51" ry="12.73"/>
	
		<ellipse transform="matrix(0.8678 -0.497 0.497 0.8678 -27.6082 105.4463)" class="st3" cx="184.34" cy="104.6" rx="18.02" ry="12.83"/>
	<path class="st4" d="M82.52,77.94c-11.82,6.02-29.84,26.19-16.1,54.12c4.4,8.94,5.43,8.76-4.39,4.05
		c-11.27-5.4-42.21-8.69-38.38-19.02c4.27-11.51,32.68-39.61,56.61-42.18C81.88,74.75,82.52,77.94,82.52,77.94z"/>
	<path class="st4" d="M146.26,132.42c-5.71,14.77-18.06,28.21-48.23,25.99c-9.93-0.73-6.29-4.63-2.32,5.51
		c5.83,14.86,10.08,36.12,20.99,34.57c14.11-2.01,33.15-38.94,33.16-64.97C149.87,126.58,146.26,132.42,146.26,132.42z"/>
</g>
</svg>
